<svg width="57" height="58" viewBox="0 0 57 58" fill="none" xmlns="http://www.w3.org/2000/svg">
<g clip-path="url(#clip0_237_113)">
<path fill-rule="evenodd" clip-rule="evenodd" d="M26.9099 44.9031C33.2723 49.3402 40.5391 52.578 47.7392 51.9363C50.3837 51.7001 52.832 50.7143 55.3442 49.7331C55.565 49.6468 55.6745 49.3969 55.5878 49.1766C55.5019 48.9563 55.2522 48.8461 55.0322 48.9325C52.5962 49.8842 50.226 50.8517 47.6638 51.08C40.5724 51.7126 33.4301 48.4498 27.185 44.0479C27.2061 43.9843 27.228 43.9207 27.2499 43.8571C27.7318 42.4591 27.426 40.4205 26.6383 38.2786C25.4956 35.1691 23.3655 31.828 21.45 29.9825C20.5667 29.1307 19.7115 28.5958 19.0132 28.4834C18.4313 28.3891 17.9319 28.5481 17.5463 28.999C17.2291 29.3715 17.0477 29.8462 16.9943 30.4027C16.9233 31.1454 17.0828 32.0471 17.4184 33.0284C18.66 36.6591 22.3078 41.437 24.2855 42.9701C24.9051 43.4505 25.5351 43.9218 26.1765 44.3829C26.0485 44.7849 25.925 45.1688 25.7734 45.5231C25.5508 46.0433 25.2696 46.4953 24.7946 46.8212C23.9184 47.4231 22.8678 47.5253 21.7935 47.3686C20.0734 47.1188 18.2946 46.2102 16.9829 45.4311C9.60488 41.0497 5.96232 33.4463 4.00303 25.8179C2.02095 18.1032 1.76158 10.3533 1.17537 5.78223C1.1447 5.54714 0.929148 5.38019 0.694314 5.41086C0.459479 5.44039 0.292993 5.65618 0.322786 5.89126C0.912501 10.4874 1.17888 18.277 3.17059 26.0314C5.18509 33.8722 8.96084 41.6664 16.5448 46.1705C17.9406 46.9984 19.8395 47.9524 21.6699 48.2192C22.9642 48.4066 24.2251 48.2544 25.2801 47.5299C25.8952 47.1074 26.2755 46.5328 26.5629 45.8616C26.6917 45.5606 26.8021 45.2381 26.9099 44.9031ZM26.4551 43.5255C26.8617 42.2717 26.5296 40.4716 25.8321 38.575C24.7342 35.5871 22.6943 32.3742 20.8542 30.6003C20.2373 30.0063 19.6511 29.5759 19.1332 29.3976C18.759 29.2681 18.4322 29.284 18.2 29.5566C17.9327 29.87 17.832 30.2982 17.8364 30.7979C17.8407 31.3737 17.9871 32.0381 18.2315 32.7513C19.4224 36.2333 22.9151 40.8214 24.8113 42.291C25.3511 42.7089 25.8996 43.1212 26.4551 43.5255Z" fill="#87CEEB"/>
<path fill-rule="evenodd" clip-rule="evenodd" d="M56.047 48.4088C56.0181 48.6053 55.92 48.8551 55.8069 49.1175C55.5519 49.7114 55.1892 50.3451 55.0279 50.6518C54.9184 50.8619 54.999 51.1219 55.2093 51.2321C55.4196 51.3423 55.679 51.2605 55.7894 51.0504C55.9857 50.6756 56.4659 49.8352 56.7235 49.139C56.8558 48.7813 56.9268 48.4519 56.9128 48.2146C56.8979 47.9818 56.8032 47.825 56.6683 47.7138C56.5263 47.5968 56.3064 47.5275 56.0128 47.5366C55.6904 47.5468 55.2303 47.649 54.7248 47.6865C54.3006 47.7183 53.8371 47.7047 53.4156 47.4934C53.2036 47.3867 52.9451 47.4718 52.8391 47.6842C52.733 47.8955 52.818 48.1544 53.0301 48.26C53.8205 48.6575 54.7177 48.5712 55.4266 48.469C55.6378 48.4383 55.8998 48.4179 56.047 48.4088Z" fill="#87CEEB"/>
</g>
<defs>
<clipPath id="clip0_237_113">
<rect width="56.6809" height="56.6809" fill="white" transform="translate(0.319336 0.425537)"/>
</clipPath>
</defs>
</svg>
