<svg width="52" height="52" viewBox="0 0 52 52" fill="none" xmlns="http://www.w3.org/2000/svg">
<g clip-path="url(#clip0_237_182)">
<path fill-rule="evenodd" clip-rule="evenodd" d="M32.4408 28.8149C33.6361 29.4953 35.0281 29.7187 36.603 29.2887C41.475 27.9584 43.5043 24.199 43.8506 19.705C44.3561 13.1431 41.2187 4.99964 38.3563 0.928648C38.221 0.735679 37.9548 0.68994 37.7629 0.825307C37.57 0.960659 37.5232 1.22675 37.6586 1.41972C40.4371 5.37079 43.4905 13.2716 43.0004 19.6401C42.6823 23.7664 40.8529 27.2443 36.378 28.4655C35.0464 28.8299 33.8723 28.6375 32.8602 28.0648C33.2243 27.3976 33.5647 26.7289 33.8804 26.0598C34.7513 24.2124 36.0964 19.0639 35.6984 15.2529C35.4122 12.5192 34.2319 10.4753 31.5707 10.498C30.0916 10.511 29.0054 11.4127 28.3246 12.8663C27.3875 14.8643 27.2304 17.9484 27.8105 20.9167C28.2931 23.3881 29.283 25.7751 30.7197 27.3909C31.0362 27.7454 31.3727 28.0647 31.7304 28.3403C26.5055 37.4978 16.9542 45.9763 7.24067 49.4489C7.01964 49.5288 6.90331 49.7721 6.98324 49.9942C7.06209 50.2163 7.30649 50.3316 7.5275 50.2527C17.3992 46.7227 27.1088 38.1212 32.4408 28.8149ZM32.1521 27.5827C32.4929 26.9549 32.8121 26.3256 33.1088 25.696C33.9427 23.9254 35.2313 18.9933 34.8497 15.3419C34.6159 13.101 33.7589 11.3321 31.5779 11.3507C30.4325 11.3611 29.6247 12.1031 29.0962 13.228C28.5162 14.466 28.2725 16.1526 28.3292 17.9565C28.4151 20.6952 29.1968 23.7037 30.6131 25.8487C31.0615 26.5285 31.575 27.1201 32.1521 27.5827Z" fill="#87CEEB"/>
<path fill-rule="evenodd" clip-rule="evenodd" d="M15.1171 35.6298C14.1676 40.6283 10.7933 45.9079 7.19373 49.541C7.02817 49.708 7.02971 49.9782 7.19677 50.1438C7.36383 50.3093 7.63401 50.3089 7.79957 50.1418C11.512 46.3956 14.9756 40.9422 15.9549 35.7892C15.9989 35.5586 15.8469 35.3352 15.6152 35.2911C15.3845 35.2471 15.1612 35.3991 15.1171 35.6298Z" fill="#87CEEB"/>
<path fill-rule="evenodd" clip-rule="evenodd" d="M7.8528 50.2328C11.5686 48.1991 17.2153 48.0109 21.3085 49.1497C21.5355 49.213 21.7715 49.0806 21.8337 48.8535C21.897 48.6265 21.7646 48.3916 21.5376 48.3283C17.2495 47.1354 11.3364 47.3543 7.44339 49.4848C7.23685 49.5973 7.16104 49.8575 7.27354 50.0641C7.38711 50.2706 7.64623 50.3464 7.8528 50.2328Z" fill="#87CEEB"/>
</g>
<defs>
<clipPath id="clip0_237_182">
<rect width="50.1552" height="50.1552" fill="white" transform="translate(50.147 51.0565) rotate(-178.961)"/>
</clipPath>
</defs>
</svg>
